:SAMPLES-PER-SECOND 30
:FULLY-SPECIFIED
:DEGREES
408
root  -1.16449 5.87772 15.3274 -47.6443 -2.10453 2.55416
RightUpLeg  -87.3738 -12.4874 3.23452
RightLeg  88.5593 16.138 -9.0648
RightFoot  31.1986 3.44182 -8.73313
RightToes  5.82077e-011 -3.18055e-015 -2.98177e-016
Spine  32.4218 -0.3429 6.30902
Spine1  -7.9234 -0.994931 -2.84062
HEad  -44.6161 -3.00427 5.43211
LeftShoulder1  -3.88251e-019 9.70628e-020 -3.87848e-018
LeftArm  -15.8107 84.5931 -49.9656
LeftForeArm  24.206 0.545288 4.25021
LeftHand  -12.3136 -11.2203 75.5493
RightShoulder  6.36129 10.6448 29.2829
RightArm  41.5467 -67.2224 -43.2256
RightForeArm  13.6913 -1.80824 -7.38218
RightHand  -10.0867 9.1294 -70.1009
LeftUpLeg  -85.6685 5.4488 -0.528258
LeftLeg  87.518 -13.7156 12.597
LeftFoot  34.1231 -0.91379 2.31869
LeftToes  5.91571e-011 -3.44359e-011 -3.93244e-011
409
root  -1.16967 5.89426 15.3392 -47.4498 -2.4215 2.5062
RightUpLeg  -87.4939 -12.3741 3.61769
RightLeg  88.5297 16.1296 -8.97641
RightFoot  31.1891 3.42775 -8.7007
RightToes  5.82077e-011 -3.18055e-015 -2.98177e-016
Spine  32.0356 -0.458621 6.5518
Spine1  -6.21986 -1.01737 -2.89152
HEad  -42.1514 -2.75416 5.04554
LeftShoulder1  -3.88251e-019 9.70628e-020 -3.87848e-018
LeftArm  -18.2789 84.2817 -53.0304
LeftForeArm  23.1812 0.475712 3.79789
LeftHand  -12.2676 -11.1456 75.5984
RightShoulder  6.35833 10.6163 29.3237
RightArm  39.6128 -67.3788 -40.7055
RightForeArm  13.4898 -1.7172 -7.37765
RightHand  -10.1656 9.21195 -70.2183
LeftUpLeg  -85.8765 5.82775 -0.368573
LeftLeg  87.6148 -13.726 12.3638
LeftFoot  34.067 -0.934761 2.36941
LeftToes  5.91571e-011 -3.44359e-011 -3.93244e-011
410
root  -1.17541 5.89253 15.3645 -47.455 -2.37861 2.7097
RightUpLeg  -87.5993 -12.3916 3.51565
RightLeg  88.6722 16.1427 -8.83071
RightFoot  31.1392 3.39799 -8.63832
RightToes  5.82077e-011 -3.18055e-015 -2.98177e-016
Spine  31.5405 -0.480727 6.03977
Spine1  -3.66001 -1.16086 -2.42951
HEad  -40.313 -1.85468 4.64827
LeftShoulder1  -3.88251e-019 9.70628e-020 -3.87848e-018
LeftArm  -23.5486 83.7127 -58.8042
LeftForeArm  22.0761 0.395453 3.28645
LeftHand  -12.22 -10.9837 75.9439
RightShoulder  6.29741 10.5434 29.1478
RightArm  36.5643 -67.4238 -36.7775
RightForeArm  13.033 -1.65751 -7.28586
RightHand  -10.1125 9.11085 -70.3082
LeftUpLeg  -85.8883 6.15545 -0.707654
LeftLeg  87.7165 -13.7403 12.215
LeftFoot  33.9559 -0.965046 2.44444
LeftToes  5.91571e-011 -3.44359e-011 -3.93244e-011
411
root  -1.18126 5.88775 15.3891 -47.5149 -2.26093 2.93919
RightUpLeg  -87.725 -12.4421 3.44341
RightLeg  88.679 16.1546 -9.06595
RightFoot  31.2161 3.46981 -8.79807
RightToes  5.82077e-011 -3.18055e-015 -2.98177e-016
Spine  31.4205 -0.515059 5.37744
Spine1  -1.42939 -1.34843 -1.92412
HEad  -38.091 -1.29069 4.07728
LeftShoulder1  -3.88251e-019 9.70628e-020 -3.87848e-018
LeftArm  -27.437 83.2666 -63.1959
LeftForeArm  20.9016 0.294488 2.66649
LeftHand  -12.3058 -10.9609 76.4161
RightShoulder  6.26137 10.4677 29.1079
RightArm  34.1322 -67.2128 -33.4873
RightForeArm  12.2867 -1.29546 -7.0654
RightHand  -10.0032 8.95732 -70.291
LeftUpLeg  -85.8653 6.52956 -1.16448
LeftLeg  87.8262 -13.7604 12.1731
LeftFoot  33.8246 -1.01909 2.57564
LeftToes  5.91571e-011 -3.44359e-011 -3.93244e-011
412
root  -1.1917 5.92753 15.3646 -47.167 -3.01098 2.57791
RightUpLeg  -87.7648 -12.3067 4.48155
RightLeg  88.4339 16.1156 -8.94438
RightFoot  31.11 3.38853 -8.62058
RightToes  5.82077e-011 -3.18055e-015 -2.98177e-016
Spine  31.5862 -0.593741 5.84015
Spine1  -0.0341957 -1.35934 -1.47194
HEad  -35.2669 -1.3031 3.33185
LeftShoulder1  -3.88251e-019 9.70628e-020 -3.87848e-018
LeftArm  -29.8773 82.9579 -66.3505
LeftForeArm  19.572 0.169068 1.91152
LeftHand  -12.3992 -11.0379 76.5706
RightShoulder  6.23345 10.3842 29.1263
RightArm  32.5612 -66.9962 -31.1211
RightForeArm  11.5207 -0.613589 -6.85502
RightHand  -9.95863 8.92604 -70.1667
LeftUpLeg  -86.2639 7.30481 -0.601519
LeftLeg  87.908 -13.7701 12.0278
LeftFoot  33.7449 -1.07753 2.7148
LeftToes  5.91571e-011 -3.44359e-011 -3.93244e-011
413
root  -1.20117 6.0079 15.2952 -46.3828 -4.49966 1.67408
RightUpLeg  -87.6676 -12.19 6.22973
RightLeg  88.4617 16.0501 -7.28568
RightFoot  30.3386 2.86317 -7.46743
RightToes  5.82077e-011 -3.18055e-015 -2.98177e-016
Spine  31.5766 -0.63062 7.27042
Spine1  1.2636 -1.21739 -0.839721
HEad  -32.5641 -1.30372 2.65761
LeftShoulder1  -3.88251e-019 9.70628e-020 -3.87848e-018
LeftArm  -32.281 82.4206 -69.6137
LeftForeArm  18.2987 0.0370263 1.13084
LeftHand  -12.3034 -10.96 76.4086
RightShoulder  6.15302 10.2606 28.9443
RightArm  30.9084 -66.9757 -28.5212
RightForeArm  10.6744 0.21852 -6.7343
RightHand  -9.95234 8.95017 -70.0419
LeftUpLeg  -87.0745 8.36487 0.83032
LeftLeg  87.9155 -13.7571 11.7062
LeftFoot  33.7482 -1.12637 2.82734
LeftToes  5.91571e-011 -3.44359e-011 -3.93244e-011
414
root  -1.19857 6.0456 15.2606 -45.9062 -5.24193 1.17593
RightUpLeg  -87.5857 -12.488 6.93507
RightLeg  89.0743 16.0183 -4.98426
RightFoot  29.2956 2.30624 -6.23865
RightToes  5.82077e-011 -3.18055e-015 -2.98177e-016
Spine  31.3515 -0.591246 7.90041
Spine1  3.2036 -1.21953 -0.129931
HEad  -30.225 -0.979055 2.28837
LeftShoulder1  -3.88251e-019 9.70628e-020 -3.87848e-018
LeftArm  -34.0768 81.772 -72.2585
LeftForeArm  17.2795 -0.0939136 0.378774
LeftHand  -12.1398 -10.7707 76.3274
RightShoulder  6.08452 10.1503 28.7978
RightArm  29.1753 -66.8978 -25.7897
RightForeArm  9.54608 1.15233 -6.61173
RightHand  -9.89434 8.88657 -69.9643
LeftUpLeg  -87.5896 9.01642 1.42191
LeftLeg  87.9138 -13.7455 11.449
LeftFoot  33.774 -1.17541 2.93889
LeftToes  5.91571e-011 -3.44359e-011 -3.93244e-011
415
root  -1.18937 5.98821 15.3106 -46.2794 -4.48802 1.65938
RightUpLeg  -87.7228 -13.0382 6.05451
RightLeg  89.6787 16.0446 -4.51116
RightFoot  29.1612 2.41003 -6.51848
RightToes  5.82077e-011 -3.18055e-015 -2.98177e-016
Spine  31.276 -0.515347 6.77406
Spine1  5.63019 -1.4932 0.393283
HEad  -27.6945 -0.74934 2.10915
LeftShoulder1  -3.88251e-019 9.70628e-020 -3.87848e-018
LeftArm  -34.6156 81.4979 -73.6891
LeftForeArm  16.2876 -0.242766 -0.461938
LeftHand  -12.2282 -10.8545 76.4364
RightShoulder  6.08854 10.1049 28.9111
RightArm  28.1813 -66.6173 -24.025
RightForeArm  8.46705 2.1996 -6.4589
RightHand  -9.82696 8.81541 -69.863
LeftUpLeg  -87.3538 8.95062 0.33702
LeftLeg  88.0225 -13.7663 11.4573
LeftFoot  33.754 -1.22302 3.05001
LeftToes  5.91571e-011 -3.44359e-011 -3.93244e-011
416
root  -1.18542 5.90576 15.4073 -46.8606 -3.13331 2.50323
RightUpLeg  -88.1884 -13.3485 4.91125
RightLeg  89.5248 16.1304 -6.58954
RightFoot  30.2266 3.18224 -8.28593
RightToes  5.82077e-011 -3.18055e-015 -2.98177e-016
Spine  31.2911 -0.406902 4.96052
Spine1  7.96616 -1.84036 0.757496
HEad  -24.7245 -1.01398 1.87575
LeftShoulder1  -3.88251e-019 9.70628e-020 -3.87848e-018
LeftArm  -34.478 81.5187 -74.6118
LeftForeArm  15.0355 -0.411056 -1.42126
LeftHand  -12.5924 -11.3074 76.5038
RightShoulder  6.10325 10.0741 29.053
RightArm  27.8005 -66.346 -23.0789
RightForeArm  7.83876 3.18949 -6.34462
RightHand  -9.85343 8.8879 -69.7355
LeftUpLeg  -86.914 8.60723 -1.36989
LeftLeg  88.1836 -13.8053 11.6443
LeftFoot  33.7084 -1.25189 3.11969
LeftToes  5.91571e-011 -3.44359e-011 -3.93244e-011
417
root  -1.19164 5.88052 15.4736 -46.9218 -2.47151 2.82716
RightUpLeg  -88.6715 -13.3255 4.67758
RightLeg  88.8977 16.1766 -8.89647
RightFoot  31.2438 3.81749 -9.64206
RightToes  5.82077e-011 -3.18055e-015 -2.98177e-016
Spine  31.0977 -0.259651 4.0387
Spine1  9.92756 -2.02305 1.20248
HEad  -21.8278 -1.53044 1.60646
LeftShoulder1  -3.88251e-019 9.70628e-020 -3.87848e-018
LeftArm  -34.4363 81.2284 -75.6311
LeftForeArm  13.7403 -0.550363 -2.23201
LeftHand  -12.8793 -11.6927 76.4576
RightShoulder  6.10447 10.0362 29.1368
RightArm  27.1346 -66.1082 -21.8716
RightForeArm  7.33301 3.8839 -6.23931
RightHand  -9.93306 9.01541 -69.6936
LeftUpLeg  -86.9288 8.4932 -2.20589
LeftLeg  88.2823 -13.8295 11.7579
LeftFoot  33.7039 -1.26227 3.14397
LeftToes  5.91571e-011 -3.44359e-011 -3.93244e-011
418
root  -1.19974 5.89494 15.4861 -46.6921 -2.53706 2.65462
RightUpLeg  -88.8275 -13.2847 4.96305
RightLeg  88.5714 16.1633 -9.53532
RightFoot  31.4148 3.76222 -9.46449
RightToes  5.82077e-011 -3.18055e-015 -2.98177e-016
Spine  30.7744 -0.144022 4.09202
Spine1  11.617 -2.06442 1.65838
HEad  -19.4952 -1.86357 1.41744
LeftShoulder1  -3.88251e-019 9.70628e-020 -3.87848e-018
LeftArm  -34.7717 80.3867 -76.6257
LeftForeArm  12.8612 -0.611029 -2.60443
LeftHand  -12.8776 -11.6851 76.4762
RightShoulder  6.18454 10.0659 29.5085
RightArm  26.0117 -65.6135 -20.2647
RightForeArm  6.41357 4.34814 -6.0649
RightHand  -9.91984 8.98642 -69.7297
LeftUpLeg  -87.1971 8.552 -2.12461
LeftLeg  88.305 -13.8344 11.7228
LeftFoot  33.7359 -1.26649 3.15154
LeftToes  5.91571e-011 -3.44359e-011 -3.93244e-011
419
root  -1.20267 5.89472 15.4824 -46.6814 -2.51745 2.56264
RightUpLeg  -88.724 -13.4029 4.86537
RightLeg  88.6779 16.1574 -9.11292
RightFoot  31.1436 3.43872 -8.73725
RightToes  5.82077e-011 -3.18055e-015 -2.98177e-016
Spine  30.5859 -0.125309 4.09701
Spine1  13.2075 -2.13769 1.91547
HEad  -17.614 -1.95613 1.13229
LeftShoulder1  -3.88251e-019 9.70628e-020 -3.87848e-018
LeftArm  -35.7477 79.3222 -77.7029
LeftForeArm  12.5058 -0.601299 -2.57632
LeftHand  -12.7186 -11.455 76.5574
RightShoulder  6.3414 10.1566 30.1654
RightArm  25.021 -64.8905 -18.918
RightForeArm  5.26012 4.90509 -5.89249
RightHand  -9.78279 8.79544 -69.6948
LeftUpLeg  -87.2124 8.47642 -2.07172
LeftLeg  88.298 -13.8386 11.6776
LeftFoot  33.7199 -1.26693 3.15364
LeftToes  5.91571e-011 -3.44359e-011 -3.93244e-011
420
root  -1.20441 5.87845 15.4797 -46.874 -2.25144 2.65398
RightUpLeg  -88.6054 -13.5087 4.50379
RightLeg  88.7647 16.1634 -8.9906
RightFoot  31.1036 3.39584 -8.64023
RightToes  5.82077e-011 -3.18055e-015 -2.98177e-016
Spine  30.6086 -0.157383 3.7362
Spine1  14.6593 -2.2987 2.12266
HEad  -15.8893 -1.94833 0.531487
LeftShoulder1  -3.88251e-019 9.70628e-020 -3.87848e-018
LeftArm  -37.3077 78.3565 -79.1075
LeftForeArm  12.3788 -0.571852 -2.43139
LeftHand  -12.5714 -11.2623 76.5651
RightShoulder  6.4046 10.1714 30.4723
RightArm  24.3894 -64.4307 -17.882
RightForeArm  4.39652 5.65066 -5.83363
RightHand  -9.63321 8.60436 -69.5897
LeftUpLeg  -86.9937 8.2481 -2.26296
LeftLeg  88.2616 -13.8268 11.7216
LeftFoot  33.6474 -1.27371 3.17427
LeftToes  5.91571e-011 -3.44359e-011 -3.93244e-011
